<svg viewBox="0 0 226 72" preserveAspectRatio="xMidYMid meet" fill="none" xmlns="http://www.w3.org/2000/svg">
<path d="M39.9767 59.291C48.199 60.2079 56.3139 61.9141 64.2091 64.386C64.2428 64.4018 64.2604 64.4393 64.2513 64.4752C64.2421 64.5112 64.2088 64.5357 64.1716 64.5335C60.3092 63.841 56.4543 63.1785 52.5742 62.7035C48.3141 62.1235 44.0466 61.666 39.7841 61.416C36.1152 61.186 32.4356 61.186 28.7667 61.416L31.1367 61.816C33.2566 62.206 35.3891 62.5835 37.5416 63.066C38.6602 63.3038 39.7617 63.6153 40.8391 63.9985C41.1568 64.118 41.4651 64.2609 41.7617 64.426C41.9646 64.5386 42.154 64.6736 42.3266 64.8285C42.6625 65.1155 42.8835 65.5141 42.9492 65.951C43.0037 66.4709 42.8199 66.9874 42.4492 67.356C42.2649 67.5381 42.0563 67.6937 41.8293 67.8185L41.5266 67.9635L41.3066 68.061L40.8442 68.231C38.6445 68.8352 36.3754 69.1503 34.0942 69.1685C31.8993 69.2735 29.7191 69.2585 27.5491 69.2035C19.2094 68.9383 10.8913 68.2038 2.63415 67.0035C2.60505 66.9976 2.58415 66.972 2.58415 66.9423C2.58415 66.9125 2.60505 66.8869 2.63415 66.881C6.63415 66.946 10.6341 67.0835 14.6341 67.0835C18.9317 67.1535 23.2392 67.1685 27.5242 67.0835C29.6617 67.0185 31.8116 66.9285 33.9116 66.7835C35.5364 66.6834 37.1517 66.4636 38.7441 66.126C38.1316 65.9635 37.5141 65.806 36.8816 65.6635C34.8366 65.221 32.7142 64.8935 30.5867 64.506C28.4592 64.1185 26.3466 63.7735 24.1466 63.241C23.5025 63.0986 22.8769 62.883 22.2817 62.5985C22.136 62.5186 21.9992 62.423 21.8741 62.3135C21.5378 62.0373 21.338 61.6286 21.3266 61.1935C21.3218 60.8937 21.4091 60.5997 21.5766 60.351C21.672 60.2091 21.7904 60.0841 21.9267 59.981C22.0692 59.8784 22.2226 59.792 22.3842 59.7235C22.7253 59.5827 23.0795 59.4764 23.4417 59.406C24.5604 59.1956 25.6907 59.0536 26.8266 58.981L26.8391 58.966C31.2192 58.6729 35.6166 58.7817 39.9767 59.291ZM69.539 1.8716C69.5545 1.8787 69.5649 1.8934 69.5668 1.9103C69.568 1.9272 69.5605 1.9437 69.5466 1.9535L67.6911 3.5439C64.4598 6.3259 57.9797 11.962 50.4974 18.7841L49.2463 19.927L48.2239 20.8647L47.1451 21.8583C43.534 25.1925 39.7763 28.7395 36.0916 32.3335C33.7141 34.6535 31.3141 37.031 28.9166 39.431L26.9464 41.4128C24.3223 44.0559 21.7486 46.665 19.3102 49.1619C19.3139 49.1603 19.3177 49.1592 19.3216 49.1585C20.9104 49.0247 22.491 48.8069 24.0568 48.506C24.078 48.5015 24.0996 48.5111 24.1105 48.53C24.1213 48.5488 24.1187 48.5724 24.1041 48.5885L10.1991 62.8235L2.58165 66.731C2.53165 66.761 2.48165 66.7035 2.50665 66.6735C3.72195 65.3771 10.5676 58.1211 18.8848 49.5907L19.2297 48.9323C20.0955 47.2945 22.4802 42.8686 25.5592 37.856C28.0651 33.7086 30.8261 29.7209 33.8266 25.916C35.2281 24.274 36.7808 22.7673 38.4641 21.416C40.7718 19.5091 43.5221 17.5183 46.4228 15.5651L47.0201 15.1649L47.5886 14.7873L48.3177 14.3079C49.027 13.844 49.7413 13.3837 50.4568 12.9287L50.934 12.6262C58.0126 8.1515 65.1099 4.2357 68.2301 2.5516L69.4916 1.876C69.5055 1.8662 69.5235 1.8645 69.539 1.8716ZM69.8387 1.7531C69.8583 1.7606 69.8707 1.7801 69.8695 1.801L69.8067 2.4766L69.7258 3.28C69.475 5.6907 68.9115 10.4862 67.9869 15.4833L67.8874 16.0141L67.8192 16.371L67.7295 16.8295L67.6395 17.2789L67.5494 17.7191C66.0614 24.9062 63.7874 31.8856 60.5191 32.3185H46.6041C45.5625 32.3185 47.5235 33.4373 49.887 34.6211L50.0383 34.6968C50.0889 34.722 50.1398 34.7473 50.1907 34.7725L50.6042 34.9766L50.9374 35.1394L51.6413 35.4793C52.3625 35.8251 53.0634 36.1538 53.6735 36.437L55.5392 37.2935C55.5528 37.3022 55.561 37.3173 55.561 37.3335C55.561 37.3457 55.5564 37.3572 55.5484 37.3659L55.5392 37.3735C52.0868 40.4235 46.3143 42.871 40.3517 44.751L39.7533 44.9333C34.5639 46.5018 29.2792 47.7788 23.9467 48.7535L31.7766 40.731L50.9366 21.1135L53.0942 18.906L69.7841 1.7685C69.7971 1.7519 69.8191 1.7456 69.8387 1.7531Z" fill="currentColor"/>
<mask id="mask0_13_127" style="mask-type:alpha" maskUnits="userSpaceOnUse" x="2" y="1" width="68" height="69">
<path d="M39.9767 59.291C48.199 60.2079 56.3139 61.9141 64.2091 64.386C64.2428 64.4018 64.2604 64.4393 64.2513 64.4752C64.2421 64.5112 64.2088 64.5357 64.1716 64.5335C60.3092 63.841 56.4543 63.1785 52.5742 62.7035C48.3141 62.1235 44.0466 61.666 39.7841 61.416C36.1152 61.186 32.4356 61.186 28.7667 61.416L31.1367 61.816C33.2566 62.206 35.3891 62.5835 37.5416 63.066C38.6602 63.3038 39.7617 63.6153 40.8391 63.9985C41.1568 64.118 41.4651 64.2609 41.7617 64.426C41.9646 64.5386 42.154 64.6736 42.3266 64.8285C42.6625 65.1155 42.8835 65.5141 42.9492 65.951C43.0037 66.4709 42.8199 66.9874 42.4492 67.356C42.2649 67.5381 42.0563 67.6937 41.8293 67.8185L41.5266 67.9635L41.3066 68.061L40.8442 68.231C38.6445 68.8352 36.3754 69.1503 34.0942 69.1685C31.8993 69.2735 29.7191 69.2585 27.5491 69.2035C19.2094 68.9383 10.8913 68.2038 2.63415 67.0035C2.60505 66.9976 2.58415 66.972 2.58415 66.9423C2.58415 66.9125 2.60505 66.8869 2.63415 66.881C6.63415 66.946 10.6341 67.0835 14.6341 67.0835C18.9317 67.1535 23.2392 67.1685 27.5242 67.0835C29.6617 67.0185 31.8116 66.9285 33.9116 66.7835C35.5364 66.6834 37.1517 66.4636 38.7441 66.126C38.1316 65.9635 37.5141 65.806 36.8816 65.6635C34.8366 65.221 32.7142 64.8935 30.5867 64.506C28.4592 64.1185 26.3466 63.7735 24.1466 63.241C23.5025 63.0986 22.8769 62.883 22.2817 62.5985C22.136 62.5186 21.9992 62.423 21.8741 62.3135C21.5378 62.0373 21.338 61.6286 21.3266 61.1935C21.3218 60.8937 21.4091 60.5997 21.5766 60.351C21.672 60.2091 21.7904 60.0841 21.9267 59.981C22.0692 59.8784 22.2226 59.792 22.3842 59.7235C22.7253 59.5827 23.0795 59.4764 23.4417 59.406C24.5604 59.1956 25.6907 59.0536 26.8266 58.981L26.8391 58.966C31.2192 58.6729 35.6166 58.7817 39.9767 59.291ZM69.539 1.8716C69.5545 1.8787 69.5649 1.8934 69.5668 1.9103C69.568 1.9272 69.5605 1.9437 69.5466 1.9535L67.6911 3.5439C64.4598 6.3259 57.9797 11.962 50.4974 18.7841L49.2463 19.927L48.2239 20.8647L47.1451 21.8583C43.534 25.1925 39.7763 28.7395 36.0916 32.3335C33.7141 34.6535 31.3141 37.031 28.9166 39.431L26.9464 41.4128C24.3223 44.0559 21.7486 46.665 19.3102 49.1619C19.3139 49.1603 19.3177 49.1592 19.3216 49.1585C20.9104 49.0247 22.491 48.8069 24.0568 48.506C24.078 48.5015 24.0996 48.5111 24.1105 48.53C24.1213 48.5488 24.1187 48.5724 24.1041 48.5885L10.1991 62.8235L2.58165 66.731C2.53165 66.761 2.48165 66.7035 2.50665 66.6735C3.72195 65.3771 10.5676 58.1211 18.8848 49.5907L19.2297 48.9323C20.0955 47.2945 22.4802 42.8686 25.5592 37.856C28.0651 33.7086 30.8261 29.7209 33.8266 25.916C35.2281 24.274 36.7808 22.7673 38.4641 21.416C40.7718 19.5091 43.5221 17.5183 46.4228 15.5651L47.0201 15.1649L47.5886 14.7873L48.3177 14.3079C49.027 13.844 49.7413 13.3837 50.4568 12.9287L50.934 12.6262C58.0126 8.1515 65.1099 4.2357 68.2301 2.5516L69.4916 1.876C69.5055 1.8662 69.5235 1.8645 69.539 1.8716ZM69.8387 1.7531C69.8583 1.7606 69.8707 1.7801 69.8695 1.801L69.8067 2.4766L69.7258 3.28C69.475 5.6907 68.9115 10.4862 67.9869 15.4833L67.8874 16.0141L67.8192 16.371L67.7295 16.8295L67.6395 17.2789L67.5494 17.7191C66.0614 24.9062 63.7874 31.8856 60.5191 32.3185H46.6041C45.5625 32.3185 47.5235 33.4373 49.887 34.6211L50.0383 34.6968C50.0889 34.722 50.1398 34.7473 50.1907 34.7725L50.6042 34.9766L50.9374 35.1394L51.6413 35.4793C52.3625 35.8251 53.0634 36.1538 53.6735 36.437L55.5392 37.2935C55.5528 37.3022 55.561 37.3173 55.561 37.3335C55.561 37.3457 55.5564 37.3572 55.5484 37.3659L55.5392 37.3735C52.0868 40.4235 46.3143 42.871 40.3517 44.751L39.7533 44.9333C34.5639 46.5018 29.2792 47.7788 23.9467 48.7535L31.7766 40.731L50.9366 21.1135L53.0942 18.906L69.7841 1.7685C69.7971 1.7519 69.8191 1.7456 69.8387 1.7531Z" fill="#F2385A"/>
</mask>
<g mask="url(#mask0_13_127)">
<path fill-rule="evenodd" clip-rule="evenodd" d="M46.1211 14.493L70.1313 1.1465L71.613 15.6806L49.7338 19.4811L46.1211 14.493Z" fill="#F2385A"/>
</g>
<mask id="mask1_13_127" style="mask-type:alpha" maskUnits="userSpaceOnUse" x="2" y="1" width="68" height="69">
<path d="M39.9767 59.291C48.199 60.2079 56.3139 61.9141 64.2091 64.386C64.2428 64.4018 64.2604 64.4393 64.2513 64.4752C64.2421 64.5112 64.2088 64.5357 64.1716 64.5335C60.3092 63.841 56.4543 63.1785 52.5742 62.7035C48.3141 62.1235 44.0466 61.666 39.7841 61.416C36.1152 61.186 32.4356 61.186 28.7667 61.416L31.1367 61.816C33.2566 62.206 35.3891 62.5835 37.5416 63.066C38.6602 63.3038 39.7617 63.6153 40.8391 63.9985C41.1568 64.118 41.4651 64.2609 41.7617 64.426C41.9646 64.5386 42.154 64.6736 42.3266 64.8285C42.6625 65.1155 42.8835 65.5141 42.9492 65.951C43.0037 66.4709 42.8199 66.9874 42.4492 67.356C42.2649 67.5381 42.0563 67.6937 41.8293 67.8185L41.5266 67.9635L41.3066 68.061L40.8442 68.231C38.6445 68.8352 36.3754 69.1503 34.0942 69.1685C31.8993 69.2735 29.7191 69.2585 27.5491 69.2035C19.2094 68.9383 10.8913 68.2038 2.63415 67.0035C2.60505 66.9976 2.58415 66.972 2.58415 66.9423C2.58415 66.9125 2.60505 66.8869 2.63415 66.881C6.63415 66.946 10.6341 67.0835 14.6341 67.0835C18.9317 67.1535 23.2392 67.1685 27.5242 67.0835C29.6617 67.0185 31.8116 66.9285 33.9116 66.7835C35.5364 66.6834 37.1517 66.4636 38.7441 66.126C38.1316 65.9635 37.5141 65.806 36.8816 65.6635C34.8366 65.221 32.7142 64.8935 30.5867 64.506C28.4592 64.1185 26.3466 63.7735 24.1466 63.241C23.5025 63.0986 22.8769 62.883 22.2817 62.5985C22.136 62.5186 21.9992 62.423 21.8741 62.3135C21.5378 62.0373 21.338 61.6286 21.3266 61.1935C21.3218 60.8937 21.4091 60.5997 21.5766 60.351C21.672 60.2091 21.7904 60.0841 21.9267 59.981C22.0692 59.8784 22.2226 59.792 22.3842 59.7235C22.7253 59.5827 23.0795 59.4764 23.4417 59.406C24.5604 59.1956 25.6907 59.0536 26.8266 58.981L26.8391 58.966C31.2192 58.6729 35.6166 58.7817 39.9767 59.291ZM69.539 1.8716C69.5545 1.8787 69.5649 1.8934 69.5668 1.9103C69.568 1.9272 69.5605 1.9437 69.5466 1.9535L67.6911 3.5439C64.4598 6.3259 57.9797 11.962 50.4974 18.7841L49.2463 19.927L48.2239 20.8647L47.1451 21.8583C43.534 25.1925 39.7763 28.7395 36.0916 32.3335C33.7141 34.6535 31.3141 37.031 28.9166 39.431L26.9464 41.4128C24.3223 44.0559 21.7486 46.665 19.3102 49.1619C19.3139 49.1603 19.3177 49.1592 19.3216 49.1585C20.9104 49.0247 22.491 48.8069 24.0568 48.506C24.078 48.5015 24.0996 48.5111 24.1105 48.53C24.1213 48.5488 24.1187 48.5724 24.1041 48.5885L10.1991 62.8235L2.58165 66.731C2.53165 66.761 2.48165 66.7035 2.50665 66.6735C3.72195 65.3771 10.5676 58.1211 18.8848 49.5907L19.2297 48.9323C20.0955 47.2945 22.4802 42.8686 25.5592 37.856C28.0651 33.7086 30.8261 29.7209 33.8266 25.916C35.2281 24.274 36.7808 22.7673 38.4641 21.416C40.7718 19.5091 43.5221 17.5183 46.4228 15.5651L47.0201 15.1649L47.5886 14.7873L48.3177 14.3079C49.027 13.844 49.7413 13.3837 50.4568 12.9287L50.934 12.6262C58.0126 8.1515 65.1099 4.2357 68.2301 2.5516L69.4916 1.876C69.5055 1.8662 69.5235 1.8645 69.539 1.8716ZM69.8387 1.7531C69.8583 1.7606 69.8707 1.7801 69.8695 1.801L69.8067 2.4766L69.7258 3.28C69.475 5.6907 68.9115 10.4862 67.9869 15.4833L67.8874 16.0141L67.8192 16.371L67.7295 16.8295L67.6395 17.2789L67.5494 17.7191C66.0614 24.9062 63.7874 31.8856 60.5191 32.3185H46.6041C45.5625 32.3185 47.5235 33.4373 49.887 34.6211L50.0383 34.6968C50.0889 34.722 50.1398 34.7473 50.1907 34.7725L50.6042 34.9766L50.9374 35.1394L51.6413 35.4793C52.3625 35.8251 53.0634 36.1538 53.6735 36.437L55.5392 37.2935C55.5528 37.3022 55.561 37.3173 55.561 37.3335C55.561 37.3457 55.5564 37.3572 55.5484 37.3659L55.5392 37.3735C52.0868 40.4235 46.3143 42.871 40.3517 44.751L39.7533 44.9333C34.5639 46.5018 29.2792 47.7788 23.9467 48.7535L31.7766 40.731L50.9366 21.1135L53.0942 18.906L69.7841 1.7685C69.7971 1.7519 69.8191 1.7456 69.8387 1.7531Z" fill="#F5A503"/>
</mask>
<g mask="url(#mask1_13_127)">
<path fill-rule="evenodd" clip-rule="evenodd" d="M49.7345 19.481L61.3351 35.4981L71.6136 15.6805L49.7345 19.481Z" fill="#F5A503"/>
</g>
<mask id="mask2_13_127" style="mask-type:alpha" maskUnits="userSpaceOnUse" x="2" y="1" width="68" height="69">
<path d="M39.9767 59.291C48.199 60.2079 56.3139 61.9141 64.2091 64.386C64.2428 64.4018 64.2604 64.4393 64.2513 64.4752C64.2421 64.5112 64.2088 64.5357 64.1716 64.5335C60.3092 63.841 56.4543 63.1785 52.5742 62.7035C48.3141 62.1235 44.0466 61.666 39.7841 61.416C36.1152 61.186 32.4356 61.186 28.7667 61.416L31.1367 61.816C33.2566 62.206 35.3891 62.5835 37.5416 63.066C38.6602 63.3038 39.7617 63.6153 40.8391 63.9985C41.1568 64.118 41.4651 64.2609 41.7617 64.426C41.9646 64.5386 42.154 64.6736 42.3266 64.8285C42.6625 65.1155 42.8835 65.5141 42.9492 65.951C43.0037 66.4709 42.8199 66.9874 42.4492 67.356C42.2649 67.5381 42.0563 67.6937 41.8293 67.8185L41.5266 67.9635L41.3066 68.061L40.8442 68.231C38.6445 68.8352 36.3754 69.1503 34.0942 69.1685C31.8993 69.2735 29.7191 69.2585 27.5491 69.2035C19.2094 68.9383 10.8913 68.2038 2.63415 67.0035C2.60505 66.9976 2.58415 66.972 2.58415 66.9423C2.58415 66.9125 2.60505 66.8869 2.63415 66.881C6.63415 66.946 10.6341 67.0835 14.6341 67.0835C18.9317 67.1535 23.2392 67.1685 27.5242 67.0835C29.6617 67.0185 31.8116 66.9285 33.9116 66.7835C35.5364 66.6834 37.1517 66.4636 38.7441 66.126C38.1316 65.9635 37.5141 65.806 36.8816 65.6635C34.8366 65.221 32.7142 64.8935 30.5867 64.506C28.4592 64.1185 26.3466 63.7735 24.1466 63.241C23.5025 63.0986 22.8769 62.883 22.2817 62.5985C22.136 62.5186 21.9992 62.423 21.8741 62.3135C21.5378 62.0373 21.338 61.6286 21.3266 61.1935C21.3218 60.8937 21.4091 60.5997 21.5766 60.351C21.672 60.2091 21.7904 60.0841 21.9267 59.981C22.0692 59.8784 22.2226 59.792 22.3842 59.7235C22.7253 59.5827 23.0795 59.4764 23.4417 59.406C24.5604 59.1956 25.6907 59.0536 26.8266 58.981L26.8391 58.966C31.2192 58.6729 35.6166 58.7817 39.9767 59.291ZM69.539 1.8716C69.5545 1.8787 69.5649 1.8934 69.5668 1.9103C69.568 1.9272 69.5605 1.9437 69.5466 1.9535L67.6911 3.5439C64.4598 6.3259 57.9797 11.962 50.4974 18.7841L49.2463 19.927L48.2239 20.8647L47.1451 21.8583C43.534 25.1925 39.7763 28.7395 36.0916 32.3335C33.7141 34.6535 31.3141 37.031 28.9166 39.431L26.9464 41.4128C24.3223 44.0559 21.7486 46.665 19.3102 49.1619C19.3139 49.1603 19.3177 49.1592 19.3216 49.1585C20.9104 49.0247 22.491 48.8069 24.0568 48.506C24.078 48.5015 24.0996 48.5111 24.1105 48.53C24.1213 48.5488 24.1187 48.5724 24.1041 48.5885L10.1991 62.8235L2.58165 66.731C2.53165 66.761 2.48165 66.7035 2.50665 66.6735C3.72195 65.3771 10.5676 58.1211 18.8848 49.5907L19.2297 48.9323C20.0955 47.2945 22.4802 42.8686 25.5592 37.856C28.0651 33.7086 30.8261 29.7209 33.8266 25.916C35.2281 24.274 36.7808 22.7673 38.4641 21.416C40.7718 19.5091 43.5221 17.5183 46.4228 15.5651L47.0201 15.1649L47.5886 14.7873L48.3177 14.3079C49.027 13.844 49.7413 13.3837 50.4568 12.9287L50.934 12.6262C58.0126 8.1515 65.1099 4.2357 68.2301 2.5516L69.4916 1.876C69.5055 1.8662 69.5235 1.8645 69.539 1.8716ZM69.8387 1.7531C69.8583 1.7606 69.8707 1.7801 69.8695 1.801L69.8067 2.4766L69.7258 3.28C69.475 5.6907 68.9115 10.4862 67.9869 15.4833L67.8874 16.0141L67.8192 16.371L67.7295 16.8295L67.6395 17.2789L67.5494 17.7191C66.0614 24.9062 63.7874 31.8856 60.5191 32.3185H46.6041C45.5625 32.3185 47.5235 33.4373 49.887 34.6211L50.0383 34.6968C50.0889 34.722 50.1398 34.7473 50.1907 34.7725L50.6042 34.9766L50.9374 35.1394L51.6413 35.4793C52.3625 35.8251 53.0634 36.1538 53.6735 36.437L55.5392 37.2935C55.5528 37.3022 55.561 37.3173 55.561 37.3335C55.561 37.3457 55.5564 37.3572 55.5484 37.3659L55.5392 37.3735C52.0868 40.4235 46.3143 42.871 40.3517 44.751L39.7533 44.9333C34.5639 46.5018 29.2792 47.7788 23.9467 48.7535L31.7766 40.731L50.9366 21.1135L53.0942 18.906L69.7841 1.7685C69.7971 1.7519 69.8191 1.7456 69.8387 1.7531Z" fill="#F5A503"/>
</mask>
<g mask="url(#mask2_13_127)">
<path fill-rule="evenodd" clip-rule="evenodd" d="M49.7345 19.481L61.3351 35.4981L71.6136 15.6805L49.7345 19.481Z" fill="#F5A503"/>
</g>
<mask id="mask3_13_127" style="mask-type:alpha" maskUnits="userSpaceOnUse" x="2" y="1" width="68" height="69">
<path d="M39.9767 59.291C48.199 60.2079 56.3139 61.9141 64.2091 64.386C64.2428 64.4018 64.2604 64.4393 64.2513 64.4752C64.2421 64.5112 64.2088 64.5357 64.1716 64.5335C60.3092 63.841 56.4543 63.1785 52.5742 62.7035C48.3141 62.1235 44.0466 61.666 39.7841 61.416C36.1152 61.186 32.4356 61.186 28.7667 61.416L31.1367 61.816C33.2566 62.206 35.3891 62.5835 37.5416 63.066C38.6602 63.3038 39.7617 63.6153 40.8391 63.9985C41.1568 64.118 41.4651 64.2609 41.7617 64.426C41.9646 64.5386 42.154 64.6736 42.3266 64.8285C42.6625 65.1155 42.8835 65.5141 42.9492 65.951C43.0037 66.4709 42.8199 66.9874 42.4492 67.356C42.2649 67.5381 42.0563 67.6937 41.8293 67.8185L41.5266 67.9635L41.3066 68.061L40.8442 68.231C38.6445 68.8352 36.3754 69.1503 34.0942 69.1685C31.8993 69.2735 29.7191 69.2585 27.5491 69.2035C19.2094 68.9383 10.8913 68.2038 2.63415 67.0035C2.60505 66.9976 2.58415 66.972 2.58415 66.9423C2.58415 66.9125 2.60505 66.8869 2.63415 66.881C6.63415 66.946 10.6341 67.0835 14.6341 67.0835C18.9317 67.1535 23.2392 67.1685 27.5242 67.0835C29.6617 67.0185 31.8116 66.9285 33.9116 66.7835C35.5364 66.6834 37.1517 66.4636 38.7441 66.126C38.1316 65.9635 37.5141 65.806 36.8816 65.6635C34.8366 65.221 32.7142 64.8935 30.5867 64.506C28.4592 64.1185 26.3466 63.7735 24.1466 63.241C23.5025 63.0986 22.8769 62.883 22.2817 62.5985C22.136 62.5186 21.9992 62.423 21.8741 62.3135C21.5378 62.0373 21.338 61.6286 21.3266 61.1935C21.3218 60.8937 21.4091 60.5997 21.5766 60.351C21.672 60.2091 21.7904 60.0841 21.9267 59.981C22.0692 59.8784 22.2226 59.792 22.3842 59.7235C22.7253 59.5827 23.0795 59.4764 23.4417 59.406C24.5604 59.1956 25.6907 59.0536 26.8266 58.981L26.8391 58.966C31.2192 58.6729 35.6166 58.7817 39.9767 59.291ZM69.539 1.8716C69.5545 1.8787 69.5649 1.8934 69.5668 1.9103C69.568 1.9272 69.5605 1.9437 69.5466 1.9535L67.6911 3.5439C64.4598 6.3259 57.9797 11.962 50.4974 18.7841L49.2463 19.927L48.2239 20.8647L47.1451 21.8583C43.534 25.1925 39.7763 28.7395 36.0916 32.3335C33.7141 34.6535 31.3141 37.031 28.9166 39.431L26.9464 41.4128C24.3223 44.0559 21.7486 46.665 19.3102 49.1619C19.3139 49.1603 19.3177 49.1592 19.3216 49.1585C20.9104 49.0247 22.491 48.8069 24.0568 48.506C24.078 48.5015 24.0996 48.5111 24.1105 48.53C24.1213 48.5488 24.1187 48.5724 24.1041 48.5885L10.1991 62.8235L2.58165 66.731C2.53165 66.761 2.48165 66.7035 2.50665 66.6735C3.72195 65.3771 10.5676 58.1211 18.8848 49.5907L19.2297 48.9323C20.0955 47.2945 22.4802 42.8686 25.5592 37.856C28.0651 33.7086 30.8261 29.7209 33.8266 25.916C35.2281 24.274 36.7808 22.7673 38.4641 21.416C40.7718 19.5091 43.5221 17.5183 46.4228 15.5651L47.0201 15.1649L47.5886 14.7873L48.3177 14.3079C49.027 13.844 49.7413 13.3837 50.4568 12.9287L50.934 12.6262C58.0126 8.1515 65.1099 4.2357 68.2301 2.5516L69.4916 1.876C69.5055 1.8662 69.5235 1.8645 69.539 1.8716ZM69.8387 1.7531C69.8583 1.7606 69.8707 1.7801 69.8695 1.801L69.8067 2.4766L69.7258 3.28C69.475 5.6907 68.9115 10.4862 67.9869 15.4833L67.8874 16.0141L67.8192 16.371L67.7295 16.8295L67.6395 17.2789L67.5494 17.7191C66.0614 24.9062 63.7874 31.8856 60.5191 32.3185H46.6041C45.5625 32.3185 47.5235 33.4373 49.887 34.6211L50.0383 34.6968C50.0889 34.722 50.1398 34.7473 50.1907 34.7725L50.6042 34.9766L50.9374 35.1394L51.6413 35.4793C52.3625 35.8251 53.0634 36.1538 53.6735 36.437L55.5392 37.2935C55.5528 37.3022 55.561 37.3173 55.561 37.3335C55.561 37.3457 55.5564 37.3572 55.5484 37.3659L55.5392 37.3735C52.0868 40.4235 46.3143 42.871 40.3517 44.751L39.7533 44.9333C34.5639 46.5018 29.2792 47.7788 23.9467 48.7535L31.7766 40.731L50.9366 21.1135L53.0942 18.906L69.7841 1.7685C69.7971 1.7519 69.8191 1.7456 69.8387 1.7531Z" fill="#4AD9D9"/>
</mask>
<g mask="url(#mask3_13_127)">
<path fill-rule="evenodd" clip-rule="evenodd" d="M46.1216 14.4929L61.4807 35.4981L42.8878 45.9727L20.9238 35.6323L46.1216 14.4929Z" fill="#4AD9D9"/>
</g>
<mask id="mask4_13_127" style="mask-type:alpha" maskUnits="userSpaceOnUse" x="2" y="1" width="68" height="69">
<path d="M39.9767 59.291C48.199 60.2079 56.3139 61.9141 64.2091 64.386C64.2428 64.4018 64.2604 64.4393 64.2513 64.4752C64.2421 64.5112 64.2088 64.5357 64.1716 64.5335C60.3092 63.841 56.4543 63.1785 52.5742 62.7035C48.3141 62.1235 44.0466 61.666 39.7841 61.416C36.1152 61.186 32.4356 61.186 28.7667 61.416L31.1367 61.816C33.2566 62.206 35.3891 62.5835 37.5416 63.066C38.6602 63.3038 39.7617 63.6153 40.8391 63.9985C41.1568 64.118 41.4651 64.2609 41.7617 64.426C41.9646 64.5386 42.154 64.6736 42.3266 64.8285C42.6625 65.1155 42.8835 65.5141 42.9492 65.951C43.0037 66.4709 42.8199 66.9874 42.4492 67.356C42.2649 67.5381 42.0563 67.6937 41.8293 67.8185L41.5266 67.9635L41.3066 68.061L40.8442 68.231C38.6445 68.8352 36.3754 69.1503 34.0942 69.1685C31.8993 69.2735 29.7191 69.2585 27.5491 69.2035C19.2094 68.9383 10.8913 68.2038 2.63415 67.0035C2.60505 66.9976 2.58415 66.972 2.58415 66.9423C2.58415 66.9125 2.60505 66.8869 2.63415 66.881C6.63415 66.946 10.6341 67.0835 14.6341 67.0835C18.9317 67.1535 23.2392 67.1685 27.5242 67.0835C29.6617 67.0185 31.8116 66.9285 33.9116 66.7835C35.5364 66.6834 37.1517 66.4636 38.7441 66.126C38.1316 65.9635 37.5141 65.806 36.8816 65.6635C34.8366 65.221 32.7142 64.8935 30.5867 64.506C28.4592 64.1185 26.3466 63.7735 24.1466 63.241C23.5025 63.0986 22.8769 62.883 22.2817 62.5985C22.136 62.5186 21.9992 62.423 21.8741 62.3135C21.5378 62.0373 21.338 61.6286 21.3266 61.1935C21.3218 60.8937 21.4091 60.5997 21.5766 60.351C21.672 60.2091 21.7904 60.0841 21.9267 59.981C22.0692 59.8784 22.2226 59.792 22.3842 59.7235C22.7253 59.5827 23.0795 59.4764 23.4417 59.406C24.5604 59.1956 25.6907 59.0536 26.8266 58.981L26.8391 58.966C31.2192 58.6729 35.6166 58.7817 39.9767 59.291ZM69.539 1.8716C69.5545 1.8787 69.5649 1.8934 69.5668 1.9103C69.568 1.9272 69.5605 1.9437 69.5466 1.9535L67.6911 3.5439C64.4598 6.3259 57.9797 11.962 50.4974 18.7841L49.2463 19.927L48.2239 20.8647L47.1451 21.8583C43.534 25.1925 39.7763 28.7395 36.0916 32.3335C33.7141 34.6535 31.3141 37.031 28.9166 39.431L26.9464 41.4128C24.3223 44.0559 21.7486 46.665 19.3102 49.1619C19.3139 49.1603 19.3177 49.1592 19.3216 49.1585C20.9104 49.0247 22.491 48.8069 24.0568 48.506C24.078 48.5015 24.0996 48.5111 24.1105 48.53C24.1213 48.5488 24.1187 48.5724 24.1041 48.5885L10.1991 62.8235L2.58165 66.731C2.53165 66.761 2.48165 66.7035 2.50665 66.6735C3.72195 65.3771 10.5676 58.1211 18.8848 49.5907L19.2297 48.9323C20.0955 47.2945 22.4802 42.8686 25.5592 37.856C28.0651 33.7086 30.8261 29.7209 33.8266 25.916C35.2281 24.274 36.7808 22.7673 38.4641 21.416C40.7718 19.5091 43.5221 17.5183 46.4228 15.5651L47.0201 15.1649L47.5886 14.7873L48.3177 14.3079C49.027 13.844 49.7413 13.3837 50.4568 12.9287L50.934 12.6262C58.0126 8.1515 65.1099 4.2357 68.2301 2.5516L69.4916 1.876C69.5055 1.8662 69.5235 1.8645 69.539 1.8716ZM69.8387 1.7531C69.8583 1.7606 69.8707 1.7801 69.8695 1.801L69.8067 2.4766L69.7258 3.28C69.475 5.6907 68.9115 10.4862 67.9869 15.4833L67.8874 16.0141L67.8192 16.371L67.7295 16.8295L67.6395 17.2789L67.5494 17.7191C66.0614 24.9062 63.7874 31.8856 60.5191 32.3185H46.6041C45.5625 32.3185 47.5235 33.4373 49.887 34.6211L50.0383 34.6968C50.0889 34.722 50.1398 34.7473 50.1907 34.7725L50.6042 34.9766L50.9374 35.1394L51.6413 35.4793C52.3625 35.8251 53.0634 36.1538 53.6735 36.437L55.5392 37.2935C55.5528 37.3022 55.561 37.3173 55.561 37.3335C55.561 37.3457 55.5564 37.3572 55.5484 37.3659L55.5392 37.3735C52.0868 40.4235 46.3143 42.871 40.3517 44.751L39.7533 44.9333C34.5639 46.5018 29.2792 47.7788 23.9467 48.7535L31.7766 40.731L50.9366 21.1135L53.0942 18.906L69.7841 1.7685C69.7971 1.7519 69.8191 1.7456 69.8387 1.7531Z" fill="#36B1BF"/>
</mask>
<g mask="url(#mask4_13_127)">
<path fill-rule="evenodd" clip-rule="evenodd" d="M20.9238 35.6323L1.57031 66.8261H9.22111L42.8878 45.9728L20.9238 35.6323Z" fill="#36B1BF"/>
</g>
<path d="M70.1318 68.601V32.8335H81.8818C85.3287 32.7466 88.741 33.539 91.797 35.136C94.52 36.5939 96.774 38.794 98.297 41.481C101.358 47.2677 101.358 54.1943 98.297 59.981C96.773 62.6669 94.519 64.866 91.797 66.3235C88.7394 67.9182 85.3265 68.7089 81.8793 68.621L70.1318 68.601ZM76.2168 63.231H81.9668C84.2134 63.2717 86.4351 62.7564 88.4343 61.731C90.31 60.7389 91.862 59.2302 92.907 57.3835C95.082 53.1914 95.082 48.2031 92.907 44.011C91.855 42.178 90.304 40.6816 88.4343 39.696C86.4351 38.6706 84.2134 38.1553 81.9668 38.196H76.2368L76.2168 63.231ZM114.179 69.231C111.898 69.2894 109.653 68.6482 107.747 67.3935C105.932 66.1607 104.49 64.4538 103.577 62.4585C102.586 60.3211 102.083 57.9895 102.107 55.6335C102.069 53.2056 102.64 50.8068 103.767 48.656C104.862 46.6113 106.507 44.914 108.517 43.756C110.772 42.4977 113.325 41.8716 115.907 41.9435C118.441 41.8663 120.946 42.4938 123.144 43.756C125.104 44.9285 126.698 46.6258 127.744 48.656C128.83 50.778 129.382 53.1327 129.352 55.516V68.6035H123.489V63.731H123.392C122.856 64.7166 122.183 65.6207 121.392 66.416C120.53 67.2819 119.504 67.9677 118.374 68.4335C117.045 68.9811 115.617 69.2524 114.179 69.231ZM115.767 64.231C117.191 64.2642 118.591 63.8631 119.782 63.081C120.938 62.2992 121.865 61.223 122.467 59.9635C123.124 58.589 123.44 57.0761 123.387 55.5535C123.414 54.0461 123.099 52.5522 122.467 51.1835C121.886 49.9478 120.987 48.889 119.862 48.116C118.664 47.3268 117.253 46.9244 115.819 46.9635C112.881 46.8515 110.168 48.5324 108.959 51.2135C107.732 54.008 107.732 57.189 108.959 59.9835C109.53 61.2455 110.441 62.324 111.589 63.0985C112.837 63.893 114.296 64.2889 115.774 64.2335L115.767 64.231ZM145.439 69.216C142.982 69.2655 140.553 68.6837 138.384 67.526C136.354 66.4168 134.692 64.7379 133.604 62.696C132.416 60.4008 131.828 57.8422 131.894 55.2585V31.2835H137.774V46.481H137.822C138.377 45.5503 139.106 44.7354 139.969 44.081C140.865 43.3897 141.867 42.8493 142.937 42.481C144.056 42.1041 145.231 41.9157 146.412 41.9235C148.712 41.8738 150.982 42.4484 152.982 43.586C154.865 44.6854 156.406 46.2866 157.432 48.211C158.546 50.3568 159.101 52.7488 159.047 55.166C159.072 57.1078 158.752 59.0386 158.102 60.8685C157.509 62.5267 156.587 64.0479 155.392 65.341C154.202 66.6147 152.74 67.6027 151.114 68.231C149.303 68.9177 147.376 69.2521 145.439 69.216ZM145.439 64.2035C146.85 64.2305 148.239 63.8503 149.439 63.1085C150.606 62.3632 151.544 61.3092 152.149 60.0635C152.823 58.6607 153.159 57.1195 153.129 55.5635C153.156 54.0239 152.82 52.4995 152.149 51.1135C151.544 49.8697 150.617 48.8106 149.464 48.046C148.283 47.2858 146.903 46.8934 145.499 46.9185C144.087 46.8918 142.698 47.2747 141.499 48.021C140.336 48.7661 139.4 49.8181 138.797 51.061C137.502 53.9212 137.502 57.2008 138.797 60.061C139.402 61.3056 140.339 62.3592 141.504 63.106C142.686 63.8415 144.053 64.2224 145.444 64.2035H145.439ZM175.109 69.216C172.649 69.2671 170.217 68.6851 168.047 67.526C166.015 66.4176 164.353 64.7385 163.264 62.696C162.077 60.4004 161.489 57.8421 161.554 55.2585V31.2835H167.434V46.481H167.484C168.041 45.5508 168.771 44.736 169.634 44.081C170.531 43.3885 171.535 42.848 172.607 42.481C173.725 42.1039 174.899 41.9155 176.079 41.9235C178.379 41.8738 180.65 42.4484 182.649 43.586C184.533 44.6848 186.074 46.2862 187.099 48.211C188.212 50.3563 188.767 52.7474 188.712 55.1635C188.732 57.1049 188.412 59.0348 187.767 60.866C187.169 62.5249 186.244 64.0468 185.047 65.341C183.864 66.6095 182.411 67.597 180.797 68.231C178.981 68.9203 177.051 69.2546 175.109 69.216ZM175.109 64.2035C176.52 64.2306 177.909 63.8504 179.109 63.1085C180.268 62.36 181.198 61.3064 181.797 60.0635C182.472 58.6611 182.807 57.1196 182.777 55.5635C182.805 54.0237 182.469 52.4991 181.797 51.1135C181.192 49.8697 180.265 48.8106 179.112 48.046C177.932 47.2835 176.551 46.8909 175.147 46.9185C173.741 46.8933 172.357 47.2763 171.164 48.021C169.995 48.7608 169.057 49.8129 168.454 51.0585C167.154 53.9177 167.154 57.1993 168.454 60.0585C169.058 61.3052 169.996 62.3595 171.164 63.1035C172.343 63.8407 173.709 64.2218 175.099 64.201L175.109 64.2035ZM191.229 68.601V31.281H197.109V68.601H191.229ZM216.484 68.601C213.743 68.6381 211.019 68.1589 208.454 67.1885C206.159 66.3274 204.171 64.8048 202.742 62.8135C201.256 60.5879 200.517 57.9471 200.632 55.2735C200.577 53.1797 200.982 51.0993 201.817 49.1785C202.544 47.5606 203.615 46.1212 204.957 44.961C206.225 43.8609 207.701 43.0261 209.297 42.506C210.88 41.9939 212.533 41.7332 214.197 41.7335C216.099 41.6671 217.992 42.0374 219.729 42.816C221.072 43.4323 222.207 44.4249 222.997 45.6735C223.715 46.8415 224.09 48.1877 224.08 49.5585C224.082 50.4135 223.924 51.2615 223.614 52.0585C223.3 52.89 222.851 53.6644 222.287 54.351C221.632 55.1174 220.875 55.7904 220.037 56.351C219.038 57.0156 217.966 57.5626 216.842 57.981C215.518 58.4728 214.158 58.8598 212.774 59.1385C211.158 59.463 209.52 59.6693 207.874 59.756C208.539 60.9733 209.567 61.953 210.814 62.5585C212.469 63.301 214.275 63.6436 216.087 63.5585H221.439V68.601H216.484ZM206.614 55.616C207.781 55.516 208.878 55.3793 209.907 55.206C210.861 55.0504 211.807 54.8443 212.739 54.5885C213.522 54.3735 214.287 54.0986 215.027 53.766C215.639 53.4893 216.218 53.1437 216.752 52.736C217.199 52.397 217.567 51.9655 217.832 51.471C218.07 51.0175 218.194 50.5131 218.194 50.001C218.197 49.1142 217.799 48.2735 217.112 47.7135C216.204 47.0458 215.089 46.7208 213.964 46.796C211.356 46.8059 208.947 48.1966 207.634 50.451C206.877 51.7947 206.501 53.3195 206.547 54.861C206.549 54.9822 206.557 55.1032 206.572 55.2235C206.595 55.3533 206.609 55.4844 206.614 55.616Z" fill="currentColor"/>
</svg>
